<?xml version="1.0" encoding="utf-8"?>
<!-- Generator: Adobe Illustrator 23.0.1, SVG Export Plug-In . SVG Version: 6.00 Build 0)  -->
<svg version="1.1" id="Layer_1" xmlns="http://www.w3.org/2000/svg" xmlns:xlink="http://www.w3.org/1999/xlink" x="0px" y="0px"
	 viewBox="0 0 612 792" style="enable-background:new 0 0 612 792;" xml:space="preserve">
<style type="text/css">
	.st0{fill:#5285C5;}
</style>
<polygon class="st0" points="499,427.1 409.7,403.5 402.1,398 390.9,396 386.8,387.9 388,380.4 379.9,376.9 374.5,362.8 
	372.8,352.8 374.7,350 369.3,347.3 361.1,348.6 353.9,352.6 342.6,353 339.5,350 344.3,344 344.9,339.3 347.8,334.6 346.7,327.8 
	349.3,323.2 351.2,316.8 357.1,315.4 348.7,306 344.3,305.9 342.6,302.8 341.7,297.7 335.9,290.6 330.4,289.6 321.8,282.3 
	314.6,278.2 312.5,275.8 306.7,275.3 305.8,273.5 297,272.4 294.7,268.3 284,260.2 279.1,259.3 273.6,255.1 267.5,253.9 
	262.5,254.8 261.6,256.3 252,249.6 246.7,249.5 244.6,251.4 240.3,248.2 234.5,248.9 228.9,253 223.1,253 211.1,249.2 209.4,246.6 
	206.2,244.7 198,259.5 193.1,259.8 190.9,263 184.5,262.7 180.4,261.2 178.8,263.1 175.5,271.1 175.5,280 167.2,292.1 163.9,300.5 
	161.2,300.2 155.5,301.2 154.6,305.7 147.4,316.1 147.1,320.2 138.5,325.5 134.8,333.7 128.8,353.2 125.5,352.3 122.9,352.5 
	121.7,356.1 115.3,362.9 113,368.2 115.2,371.3 115.3,377 110.5,383.5 108,390.8 108.8,401.1 107.8,413.4 103.7,416.1 101.8,418.9 
	98.1,418.3 95,416.4 89.2,417.6 82.5,416.4 82.2,422.1 79.2,423.6 74.4,429.4 76.6,432.9 81.9,434.5 94.6,434.4 97.6,437.6 
	103,442.2 104.1,445.9 106.2,447 112.1,456.2 117.6,458.3 117.4,460.3 119.6,462.3 125.5,462.3 129.2,466.4 131.7,470.5 
	136.7,475.1 138.1,484.8 141.1,487.8 143.1,497 145.3,494.8 148.4,499.6 154.6,498.6 159.2,499.3 159.2,515 164.5,520.1 170.2,521 
	177.1,519 184.7,520.7 199.6,519.9 205.2,522.9 217.9,533.5 225.5,537.8 230.3,542.7 235.2,544.1 246,544.1 252.6,546.6 
	260.7,545.6 266.2,547.3 270.6,547.3 276.7,546.8 284.5,536.2 287.5,532.8 293.9,530.6 298.6,530.9 301.8,529.1 316.1,527.4 
	320.4,529.4 324.1,535.1 329.2,537.6 340.7,536 348.3,536 349.3,535.8 351.9,532.1 361.7,527.9 370.7,526.8 378.6,523 384.6,520.1 
	387,514.8 394.6,511.3 400,511 405.7,507.8 424.6,507.2 443.3,507.6 538.2,426.6 "/>
</svg>
