<?xml version="1.0" encoding="utf-8"?>
<!-- Generator: Adobe Illustrator 23.0.1, SVG Export Plug-In . SVG Version: 6.00 Build 0)  -->
<svg version="1.1" id="Layer_1" xmlns="http://www.w3.org/2000/svg" xmlns:xlink="http://www.w3.org/1999/xlink" x="0px" y="0px"
	 viewBox="0 0 612 792" style="enable-background:new 0 0 612 792;" xml:space="preserve">
<style type="text/css">
	.st0{fill:#5285C5;}
	.st1{fill:#010101;}
	.st2{font-family:'Microsoft-Yi-Baiti';}
	.st3{font-size:58.1989px;}
	.st4{letter-spacing:-2.4;}
	.st5{fill:#242D3A;}
	.st6{fill:#FFFFFF;}
	.st7{fill:none;stroke:#FFFFFF;stroke-miterlimit:10;}
</style>
<path class="st0" d="M209.3,330.8c10.2-12.6,38.5-0.5,48.1-17.5c8.3-14.7-8.7-31.7-3-43.7c14.3-30.3,153.1,14.7,153,29.8
	c-0.1,10.5-88.7-16.8-122.6,26.9c-35.8,46.2,16.7,136.4,3.1,140.9C269.7,473.1,187.4,357.9,209.3,330.8z"/>
<text transform="matrix(0.8286 0 0 1 297.2559 395.9609)" class="st1 st2 st3 st4">App In</text>
<path class="st5" d="M255.6,372.5h-74.3c-6.6,0-12-5.4-12-12v-94.7c0-6.6,5.4-12,12-12h74.3c6.6,0,12,5.4,12,12v94.7
	C267.6,367.1,262.2,372.5,255.6,372.5z"/>
<polygon class="st6" points="173.6,285.5 195.5,285.5 195.5,259.1 "/>
<line class="st7" x1="183.4" y1="313.2" x2="238.1" y2="313.2"/>
<line class="st7" x1="183.4" y1="331.6" x2="238.1" y2="331.6"/>
<line class="st7" x1="183.4" y1="296" x2="238.1" y2="296"/>
<g id="person">
	<g>
		<g>
			<path class="st5" d="M305.5,482.9c-2.8,0.7-7.5,5.9-8.3,10.7h41c-0.8-4.8-5.5-10-8.3-10.7c-2.8-0.7-7.1-4.5-7.1-6.1v-3.9
				c0-1.5,1.9-5.6,2.6-8.2c0.7,0.3,1.5-0.3,1.8-1.3l1.1-4.5c0.3-1.1-0.1-2.3-0.9-2.7l-0.7-0.3c0.1-1.7,0.2-3.9-0.2-6.1
				c-1-6-4.5-8.9-8.7-8.9c-4.3,0-7.7,2.9-8.7,8.9c-0.4,2.2-0.4,4.4-0.2,6.1l-0.8,0.4c-0.8,0.4-1.2,1.6-0.9,2.7l1.1,4.5
				c0.3,1,1.1,1.6,1.8,1.3c0.6,2.6,2.5,6.7,2.5,8.2v3.9C312.5,478.4,308.3,482.2,305.5,482.9z"/>
		</g>
	</g>
</g>
<path class="st5" d="M433.7,264.9c2.5-1.6,6.6-1.6,9.2,0l21.9,13.8c2.5,1.6,2.2,2.9-0.7,2.9h-51.6c-2.9,0-3.3-1.3-0.7-2.9
	L433.7,264.9z"/>
<path class="st5" d="M424.9,305.5c0,1.9-1.4,3.4-3.2,3.4h-0.8c-1.8,0-3.2-1.5-3.2-3.4v-3.8c0-1.9,1.4-3.4,3.2-3.4h0.8
	c1.8,0,3.2,1.5,3.2,3.4V305.5z"/>
<path class="st5" d="M441.9,305.5c0,1.9-1.4,3.4-3.2,3.4h-0.8c-1.8,0-3.2-1.5-3.2-3.4v-3.8c0-1.9,1.4-3.4,3.2-3.4h0.8
	c1.8,0,3.2,1.5,3.2,3.4V305.5z"/>
<path class="st5" d="M458.9,305.5c0,1.9-1.4,3.4-3.2,3.4h-0.8c-1.8,0-3.2-1.5-3.2-3.4v-3.8c0-1.9,1.4-3.4,3.2-3.4h0.8
	c1.8,0,3.2,1.5,3.2,3.4V305.5z"/>
<path class="st5" d="M424.9,293.6c0,1.6-1.4,2.9-3.2,2.9h-0.8c-1.8,0-3.2-1.3-3.2-2.9c0-1.6,1.4-2.9,3.2-2.9h0.8
	C423.4,290.8,424.9,292,424.9,293.6z"/>
<path class="st5" d="M441.9,293.6c0,1.6-1.4,2.9-3.2,2.9h-0.8c-1.8,0-3.2-1.3-3.2-2.9c0-1.6,1.4-2.9,3.2-2.9h0.8
	C440.4,290.8,441.9,292,441.9,293.6z"/>
<path class="st5" d="M458.9,293.6c0,1.6-1.4,2.9-3.2,2.9h-0.8c-1.8,0-3.2-1.3-3.2-2.9c0-1.6,1.4-2.9,3.2-2.9h0.8
	C457.4,290.8,458.9,292,458.9,293.6z"/>
<path class="st5" d="M424.9,313.2c0,1.6-1.4,2.9-3.2,2.9h-0.8c-1.8,0-3.2-1.3-3.2-2.9c0-1.6,1.4-2.9,3.2-2.9h0.8
	C423.4,310.3,424.9,311.6,424.9,313.2z"/>
<path class="st5" d="M441.9,313.2c0,1.6-1.4,2.9-3.2,2.9h-0.8c-1.8,0-3.2-1.3-3.2-2.9c0-1.6,1.4-2.9,3.2-2.9h0.8
	C440.4,310.3,441.9,311.6,441.9,313.2z"/>
<path class="st5" d="M458.9,313.2c0,1.6-1.4,2.9-3.2,2.9h-0.8c-1.8,0-3.2-1.3-3.2-2.9c0-1.6,1.4-2.9,3.2-2.9h0.8
	C457.4,310.3,458.9,311.6,458.9,313.2z"/>
<path class="st5" d="M456.3,285.4c1.5,0,2.8,1.1,2.8,2.5c0,1.4-1.3,2.5-2.8,2.5H413c-1.5,0-2.8-1.1-2.8-2.5c0-1.4,1.3-2.5,2.8-2.5
	H456.3z"/>
<path class="st5" d="M463.2,323.3c1.8,0,3.2,1,3.2,2.3c0,1.3-1.4,2.3-3.2,2.3h-49.8c-1.8,0-3.2-1-3.2-2.3c0-1.3,1.4-2.3,3.2-2.3
	H463.2z"/>
<path class="st5" d="M458.3,317c1.8,0,3.2,1,3.2,2.3c0,1.3-1.4,2.3-3.2,2.3h-40.1c-1.8,0-3.2-1-3.2-2.3c0-1.3,1.4-2.3,3.2-2.3H458.3
	z"/>
</svg>
